<svg xmlns="http://www.w3.org/2000/svg" width="1920" height="1080"><path d="M1438,1238L1221,1245L1634,1270Z" fill="#1b733e" stroke="#1b733e" stroke-width="1.51"/><path d="M1221,1245L532,1288L1634,1270Z" fill="#31804a" stroke="#31804a" stroke-width="1.51"/><path d="M1049,-231L1358,-219L1694,-215Z" fill="#a1cf99" stroke="#a1cf99" stroke-width="1.51"/><path d="M1634,1270L532,1288L1977,1294Z" fill="#1c723f" stroke="#1c723f" stroke-width="1.51"/><path d="M532,1288L212,1304L1977,1294Z" fill="#448652" stroke="#448652" stroke-width="1.51"/><path d="M1049,-231L1694,-215L2026,-214Z" fill="#95c08f" stroke="#95c08f" stroke-width="1.51"/><path d="M1694,-215L1807,-185L2026,-214Z" fill="#8cb487" stroke="#8cb487" stroke-width="1.51"/><path d="M2012,218L2086,339L2107,92Z" fill="#6c9c63" stroke="#6c9c63" stroke-width="1.51"/><path d="M1981,772L2081,918L2147,732Z" fill="#1d7641" stroke="#1d7641" stroke-width="1.51"/><path d="M2136,499L2081,565L2147,732Z" fill="#38844d" stroke="#38844d" stroke-width="1.51"/><path d="M1894,1126L1977,1294L2154,1082Z" fill="#005c33" stroke="#005c33" stroke-width="1.51"/><path d="M2147,732L2081,918L2154,1082Z" fill="#146938" stroke="#146938" stroke-width="1.51"/><path d="M2147,732L2154,1082L2166,1230Z" fill="#0a6034" stroke="#0a6034" stroke-width="1.51"/><path d="M2154,1082L1977,1294L2166,1230Z" fill="#005430" stroke="#005430" stroke-width="1.51"/><path d="M1998,-49L2107,92L2175,11Z" fill="#7ca16c" stroke="#7ca16c" stroke-width="1.51"/><path d="M2079,-152L1998,-49L2175,11Z" fill="#81a472" stroke="#81a472" stroke-width="1.51"/><path d="M2086,339L2136,499L2175,11Z" fill="#62945e" stroke="#62945e" stroke-width="1.51"/><path d="M2107,92L2086,339L2175,11Z" fill="#729b65" stroke="#729b65" stroke-width="1.51"/><path d="M2136,499L2147,732L2175,11Z" fill="#528d57" stroke="#528d57" stroke-width="1.51"/><path d="M2147,732L2166,1230L2175,11Z" fill="#2e7d48" stroke="#2e7d48" stroke-width="1.51"/><path d="M2081,565L1981,772L2147,732Z" fill="#2b8048" stroke="#2b8048" stroke-width="1.51"/><path d="M2081,918L1885,1039L2154,1082Z" fill="#0b6737" stroke="#0b6737" stroke-width="1.51"/><path d="M1885,1039L1894,1126L2154,1082Z" fill="#046636" stroke="#046636" stroke-width="1.51"/><path d="M1754,1240L1634,1270L1977,1294Z" fill="#065f33" stroke="#065f33" stroke-width="1.51"/><path d="M1938,592L1981,772L2081,565Z" fill="#33884d" stroke="#33884d" stroke-width="1.51"/><path d="M2086,339L1892,483L2136,499Z" fill="#519258" stroke="#519258" stroke-width="1.51"/><path d="M1892,483L2081,565L2136,499Z" fill="#468e54" stroke="#468e54" stroke-width="1.51"/><path d="M1884,409L1892,483L2086,339Z" fill="#57995c" stroke="#57995c" stroke-width="1.51"/><path d="M1998,-49L2012,218L2107,92Z" fill="#79a36a" stroke="#79a36a" stroke-width="1.51"/><path d="M1998,-49L1812,82L2012,218Z" fill="#7ca96d" stroke="#7ca96d" stroke-width="1.51"/><path d="M1924,870L1885,1039L2081,918Z" fill="#12713b" stroke="#12713b" stroke-width="1.51"/><path d="M1981,772L1924,870L2081,918Z" fill="#1a773f" stroke="#1a773f" stroke-width="1.51"/><path d="M1892,483L1938,592L2081,565Z" fill="#429054" stroke="#429054" stroke-width="1.51"/><path d="M2012,218L1913,281L2086,339Z" fill="#669d61" stroke="#669d61" stroke-width="1.51"/><path d="M1913,281L1884,409L2086,339Z" fill="#609d5f" stroke="#609d5f" stroke-width="1.51"/><path d="M2026,-214L1998,-49L2079,-152Z" fill="#84a77b" stroke="#84a77b" stroke-width="1.51"/><path d="M1812,82L1913,281L2012,218Z" fill="#73a768" stroke="#73a768" stroke-width="1.51"/><path d="M1807,-185L1998,-49L2026,-214Z" fill="#87ae7f" stroke="#87ae7f" stroke-width="1.51"/><path d="M1786,-42L1812,82L1998,-49Z" fill="#85b073" stroke="#85b073" stroke-width="1.51"/><path d="M1807,-185L1786,-42L1998,-49Z" fill="#88b27b" stroke="#88b27b" stroke-width="1.51"/><path d="M1894,1126L1754,1240L1977,1294Z" fill="#015f34" stroke="#015f34" stroke-width="1.51"/><path d="M1845,856L1924,870L1981,772Z" fill="#1d7e43" stroke="#1d7e43" stroke-width="1.51"/><path d="M1938,592L1745,622L1981,772Z" fill="#328e4e" stroke="#328e4e" stroke-width="1.51"/><path d="M1745,622L1845,856L1981,772Z" fill="#268949" stroke="#268949" stroke-width="1.51"/><path d="M1745,622L1760,842L1845,856Z" fill="#278a49" stroke="#278a49" stroke-width="1.51"/><path d="M1843,299L1884,409L1913,281Z" fill="#64a262" stroke="#64a262" stroke-width="1.51"/><path d="M1812,82L1843,299L1913,281Z" fill="#71a868" stroke="#71a868" stroke-width="1.51"/><path d="M1845,856L1885,1039L1924,870Z" fill="#15763d" stroke="#15763d" stroke-width="1.51"/><path d="M1892,483L1745,622L1938,592Z" fill="#429556" stroke="#429556" stroke-width="1.51"/><path d="M889,1202L532,1288L1221,1245Z" fill="#488c54" stroke="#488c54" stroke-width="1.51"/><path d="M1812,82L1711,107L1843,299Z" fill="#7aaf6c" stroke="#7aaf6c" stroke-width="1.51"/><path d="M1845,856L1760,842L1885,1039Z" fill="#187a3f" stroke="#187a3f" stroke-width="1.51"/><path d="M1760,842L1683,1115L1885,1039Z" fill="#14763d" stroke="#14763d" stroke-width="1.51"/><path d="M1884,409L1679,506L1892,483Z" fill="#539d5c" stroke="#539d5c" stroke-width="1.51"/><path d="M1679,506L1745,622L1892,483Z" fill="#4a9c5a" stroke="#4a9c5a" stroke-width="1.51"/><path d="M1885,1039L1683,1115L1894,1126Z" fill="#076d39" stroke="#076d39" stroke-width="1.51"/><path d="M1683,1115L1754,1240L1894,1126Z" fill="#076937" stroke="#076937" stroke-width="1.51"/><path d="M1843,299L1686,307L1884,409Z" fill="#65a663" stroke="#65a663" stroke-width="1.51"/><path d="M1686,307L1679,506L1884,409Z" fill="#5ea460" stroke="#5ea460" stroke-width="1.51"/><path d="M1606,888L1683,1115L1760,842Z" fill="#1d7e40" stroke="#1d7e40" stroke-width="1.51"/><path d="M1711,107L1686,307L1843,299Z" fill="#73ad6a" stroke="#73ad6a" stroke-width="1.51"/><path d="M1358,-219L1507,-165L1694,-215Z" fill="#99c490" stroke="#99c490" stroke-width="1.51"/><path d="M1679,506L1697,600L1745,622Z" fill="#469c58" stroke="#469c58" stroke-width="1.51"/><path d="M1745,622L1618,751L1760,842Z" fill="#2c914d" stroke="#2c914d" stroke-width="1.51"/><path d="M1694,-215L1786,-42L1807,-185Z" fill="#8eb783" stroke="#8eb783" stroke-width="1.51"/><path d="M1786,-42L1711,107L1812,82Z" fill="#84b373" stroke="#84b373" stroke-width="1.51"/><path d="M1583,-15L1711,107L1786,-42Z" fill="#8ab876" stroke="#8ab876" stroke-width="1.51"/><path d="M1694,-215L1583,-15L1786,-42Z" fill="#8fba7f" stroke="#8fba7f" stroke-width="1.51"/><path d="M1697,600L1618,751L1745,622Z" fill="#3b9753" stroke="#3b9753" stroke-width="1.51"/><path d="M1683,1115L1634,1270L1754,1240Z" fill="#0d6938" stroke="#0d6938" stroke-width="1.51"/><path d="M1618,751L1606,888L1760,842Z" fill="#288a48" stroke="#288a48" stroke-width="1.51"/><path d="M1529,233L1686,307L1711,107Z" fill="#7ab36d" stroke="#7ab36d" stroke-width="1.51"/><path d="M1606,888L1472,968L1683,1115Z" fill="#1e7f41" stroke="#1e7f41" stroke-width="1.51"/><path d="M1497,401L1679,506L1686,307Z" fill="#62aa63" stroke="#62aa63" stroke-width="1.51"/><path d="M1507,-165L1583,-15L1694,-215Z" fill="#94bf85" stroke="#94bf85" stroke-width="1.51"/><path d="M1566,16L1517,88L1711,107Z" fill="#89bb75" stroke="#89bb75" stroke-width="1.51"/><path d="M1517,88L1529,233L1711,107Z" fill="#84b972" stroke="#84b972" stroke-width="1.51"/><path d="M1583,-15L1566,16L1711,107Z" fill="#8bbb76" stroke="#8bbb76" stroke-width="1.51"/><path d="M1472,968L1462,1117L1683,1115Z" fill="#1b7c40" stroke="#1b7c40" stroke-width="1.51"/><path d="M1679,506L1447,644L1697,600Z" fill="#49a05a" stroke="#49a05a" stroke-width="1.51"/><path d="M1447,644L1618,751L1697,600Z" fill="#3d9c55" stroke="#3d9c55" stroke-width="1.51"/><path d="M1462,1117L1634,1270L1683,1115Z" fill="#13713b" stroke="#13713b" stroke-width="1.51"/><path d="M1529,233L1497,401L1686,307Z" fill="#71b269" stroke="#71b269" stroke-width="1.51"/><path d="M1497,401L1447,644L1679,506Z" fill="#56a960" stroke="#56a960" stroke-width="1.51"/><path d="M599,-232L917,-205L1049,-231Z" fill="#c5e7b0" stroke="#c5e7b0" stroke-width="1.51"/><path d="M1420,439L1447,644L1497,401Z" fill="#5daf65" stroke="#5daf65" stroke-width="1.51"/><path d="M1437,814L1606,888L1618,751Z" fill="#2d904b" stroke="#2d904b" stroke-width="1.51"/><path d="M1462,1117L1438,1238L1634,1270Z" fill="#17713d" stroke="#17713d" stroke-width="1.51"/><path d="M1447,644L1437,814L1618,751Z" fill="#369c53" stroke="#369c53" stroke-width="1.51"/><path d="M1437,814L1472,968L1606,888Z" fill="#298c48" stroke="#298c48" stroke-width="1.51"/><path d="M1507,-165L1566,16L1583,-15Z" fill="#94c17e" stroke="#94c17e" stroke-width="1.51"/><path d="M1263,-59L1300,61L1507,-165Z" fill="#9ece88" stroke="#9ece88" stroke-width="1.51"/><path d="M1300,61L1517,88L1566,16Z" fill="#91c47c" stroke="#91c47c" stroke-width="1.51"/><path d="M1507,-165L1300,61L1566,16Z" fill="#97c781" stroke="#97c781" stroke-width="1.51"/><path d="M1111,1207L889,1202L1221,1245Z" fill="#37874e" stroke="#37874e" stroke-width="1.51"/><path d="M1420,439L1339,549L1447,644Z" fill="#57af65" stroke="#57af65" stroke-width="1.51"/><path d="M1358,-219L1263,-59L1507,-165Z" fill="#9fce91" stroke="#9fce91" stroke-width="1.51"/><path d="M1345,308L1497,401L1529,233Z" fill="#76b96e" stroke="#76b96e" stroke-width="1.51"/><path d="M1517,88L1350,155L1529,233Z" fill="#88c076" stroke="#88c076" stroke-width="1.51"/><path d="M1350,155L1345,308L1529,233Z" fill="#82c075" stroke="#82c075" stroke-width="1.51"/><path d="M1300,61L1350,155L1517,88Z" fill="#90c77d" stroke="#90c77d" stroke-width="1.51"/><path d="M1345,308L1420,439L1497,401Z" fill="#6eb86c" stroke="#6eb86c" stroke-width="1.51"/><path d="M1382,1187L1438,1238L1462,1117Z" fill="#1c7941" stroke="#1c7941" stroke-width="1.51"/><path d="M1319,1034L1462,1117L1472,968Z" fill="#238646" stroke="#238646" stroke-width="1.51"/><path d="M1230,693L1437,814L1447,644Z" fill="#3fa559" stroke="#3fa559" stroke-width="1.51"/><path d="M1437,814L1308,848L1472,968Z" fill="#30944d" stroke="#30944d" stroke-width="1.51"/><path d="M1308,848L1308,967L1472,968Z" fill="#2e914c" stroke="#2e914c" stroke-width="1.51"/><path d="M1308,967L1319,1034L1472,968Z" fill="#2a8d4a" stroke="#2a8d4a" stroke-width="1.51"/><path d="M1230,693L1308,848L1437,814Z" fill="#3ba257" stroke="#3ba257" stroke-width="1.51"/><path d="M1319,1034L1382,1187L1462,1117Z" fill="#208245" stroke="#208245" stroke-width="1.51"/><path d="M1382,1187L1221,1245L1438,1238Z" fill="#1f7a43" stroke="#1f7a43" stroke-width="1.51"/><path d="M1339,549L1230,693L1447,644Z" fill="#4eae61" stroke="#4eae61" stroke-width="1.51"/><path d="M1345,308L1208,362L1420,439Z" fill="#75bf71" stroke="#75bf71" stroke-width="1.51"/><path d="M1208,362L1339,549L1420,439Z" fill="#69ba6e" stroke="#69ba6e" stroke-width="1.51"/><path d="M1230,693L1225,795L1308,848Z" fill="#3fa75a" stroke="#3fa75a" stroke-width="1.51"/><path d="M1247,188L1345,308L1350,155Z" fill="#88c87a" stroke="#88c87a" stroke-width="1.51"/><path d="M1319,1034L1186,1130L1382,1187Z" fill="#258849" stroke="#258849" stroke-width="1.51"/><path d="M1186,1130L1221,1245L1382,1187Z" fill="#248347" stroke="#248347" stroke-width="1.51"/><path d="M1208,362L1143,431L1339,549Z" fill="#6fc072" stroke="#6fc072" stroke-width="1.51"/><path d="M1132,-118L1263,-59L1358,-219Z" fill="#a5d595" stroke="#a5d595" stroke-width="1.51"/><path d="M1049,-231L1132,-118L1358,-219Z" fill="#abd99f" stroke="#abd99f" stroke-width="1.51"/><path d="M1300,61L1247,188L1350,155Z" fill="#92cc7f" stroke="#92cc7f" stroke-width="1.51"/><path d="M1247,188L1208,362L1345,308Z" fill="#82c778" stroke="#82c778" stroke-width="1.51"/><path d="M1143,431L1230,693L1339,549Z" fill="#5eb96b" stroke="#5eb96b" stroke-width="1.51"/><path d="M1193,895L1308,967L1308,848Z" fill="#349a51" stroke="#349a51" stroke-width="1.51"/><path d="M1308,967L1186,1130L1319,1034Z" fill="#2b8f4c" stroke="#2b8f4c" stroke-width="1.51"/><path d="M1193,895L1186,1130L1308,967Z" fill="#329450" stroke="#329450" stroke-width="1.51"/><path d="M1225,795L1193,895L1308,848Z" fill="#3ca056" stroke="#3ca056" stroke-width="1.51"/><path d="M1263,-59L1044,-43L1300,61Z" fill="#a4d68c" stroke="#a4d68c" stroke-width="1.51"/><path d="M1044,-43L1247,188L1300,61Z" fill="#9ed387" stroke="#9ed387" stroke-width="1.51"/><path d="M681,1214L532,1288L889,1202Z" fill="#59935b" stroke="#59935b" stroke-width="1.51"/><path d="M1065,982L1186,1130L1193,895Z" fill="#3a9753" stroke="#3a9753" stroke-width="1.51"/><path d="M1143,431L1009,657L1230,693Z" fill="#63bb6d" stroke="#63bb6d" stroke-width="1.51"/><path d="M1044,-43L983,147L1247,188Z" fill="#a4d78a" stroke="#a4d78a" stroke-width="1.51"/><path d="M1007,250L1208,362L1247,188Z" fill="#8dcd7f" stroke="#8dcd7f" stroke-width="1.51"/><path d="M1132,-118L1044,-43L1263,-59Z" fill="#acd993" stroke="#acd993" stroke-width="1.51"/><path d="M983,147L1007,250L1247,188Z" fill="#9bd486" stroke="#9bd486" stroke-width="1.51"/><path d="M1186,1130L1111,1207L1221,1245Z" fill="#2f864b" stroke="#2f864b" stroke-width="1.51"/><path d="M1023,816L1225,795L1230,693Z" fill="#49ac5f" stroke="#49ac5f" stroke-width="1.51"/><path d="M1009,657L1023,816L1230,693Z" fill="#55b466" stroke="#55b466" stroke-width="1.51"/><path d="M1023,816L1193,895L1225,795Z" fill="#46a65b" stroke="#46a65b" stroke-width="1.51"/><path d="M1065,982L1098,1156L1186,1130Z" fill="#389251" stroke="#389251" stroke-width="1.51"/><path d="M1007,250L1143,431L1208,362Z" fill="#86cb7c" stroke="#86cb7c" stroke-width="1.51"/><path d="M1098,1156L1111,1207L1186,1130Z" fill="#338a4e" stroke="#338a4e" stroke-width="1.51"/><path d="M1023,816L1065,982L1193,895Z" fill="#46a25a" stroke="#46a25a" stroke-width="1.51"/><path d="M1007,250L984,409L1143,431Z" fill="#8acd7e" stroke="#8acd7e" stroke-width="1.51"/><path d="M984,409L1009,657L1143,431Z" fill="#77c577" stroke="#77c577" stroke-width="1.51"/><path d="M1049,-231L1044,-43L1132,-118Z" fill="#b2dd9d" stroke="#b2dd9d" stroke-width="1.51"/><path d="M1065,982L889,1202L1098,1156Z" fill="#409455" stroke="#409455" stroke-width="1.51"/><path d="M1098,1156L889,1202L1111,1207Z" fill="#3c8c51" stroke="#3c8c51" stroke-width="1.51"/><path d="M917,-205L1044,-43L1049,-231Z" fill="#b8e0a4" stroke="#b8e0a4" stroke-width="1.51"/><path d="M830,1143L889,1202L1065,982Z" fill="#499858" stroke="#499858" stroke-width="1.51"/><path d="M753,1009L830,1143L860,859Z" fill="#59a45f" stroke="#59a45f" stroke-width="1.51"/><path d="M984,409L837,493L1009,657Z" fill="#7dc87a" stroke="#7dc87a" stroke-width="1.51"/><path d="M905,-30L983,147L1044,-43Z" fill="#b2de94" stroke="#b2de94" stroke-width="1.51"/><path d="M917,-205L905,-30L1044,-43Z" fill="#bae29e" stroke="#bae29e" stroke-width="1.51"/><path d="M1023,816L860,859L1065,982Z" fill="#51a85f" stroke="#51a85f" stroke-width="1.51"/><path d="M860,859L830,1143L1065,982Z" fill="#50a15d" stroke="#50a15d" stroke-width="1.51"/><path d="M1009,657L870,718L1023,816Z" fill="#5eb86a" stroke="#5eb86a" stroke-width="1.51"/><path d="M869,347L984,409L1007,250Z" fill="#95d284" stroke="#95d284" stroke-width="1.51"/><path d="M837,493L817,642L1009,657Z" fill="#77c577" stroke="#77c577" stroke-width="1.51"/><path d="M870,718L860,859L1023,816Z" fill="#5eb368" stroke="#5eb368" stroke-width="1.51"/><path d="M905,-30L870,154L983,147Z" fill="#b2df93" stroke="#b2df93" stroke-width="1.51"/><path d="M983,147L870,154L1007,250Z" fill="#a6da8c" stroke="#a6da8c" stroke-width="1.51"/><path d="M817,642L870,718L1009,657Z" fill="#6cbf71" stroke="#6cbf71" stroke-width="1.51"/><path d="M870,154L869,347L1007,250Z" fill="#a2d88a" stroke="#a2d88a" stroke-width="1.51"/><path d="M793,250L869,347L870,154Z" fill="#a8db8c" stroke="#a8db8c" stroke-width="1.51"/><path d="M869,347L837,493L984,409Z" fill="#8fd081" stroke="#8fd081" stroke-width="1.51"/><path d="M790,745L860,859L870,718Z" fill="#67b96c" stroke="#67b96c" stroke-width="1.51"/><path d="M690,-15L870,154L905,-30Z" fill="#bee499" stroke="#bee499" stroke-width="1.51"/><path d="M599,-232L797,-122L917,-205Z" fill="#cce9b0" stroke="#cce9b0" stroke-width="1.51"/><path d="M797,-122L905,-30L917,-205Z" fill="#c2e5a4" stroke="#c2e5a4" stroke-width="1.51"/><path d="M690,-15L676,106L870,154Z" fill="#c1e599" stroke="#c1e599" stroke-width="1.51"/><path d="M797,-122L690,-15L905,-30Z" fill="#c7e7a0" stroke="#c7e7a0" stroke-width="1.51"/><path d="M830,1143L681,1214L889,1202Z" fill="#529559" stroke="#529559" stroke-width="1.51"/><path d="M381,1268L212,1304L532,1288Z" fill="#6e9863" stroke="#6e9863" stroke-width="1.51"/><path d="M693,889L753,1009L860,859Z" fill="#62ac64" stroke="#62ac64" stroke-width="1.51"/><path d="M698,451L837,493L869,347Z" fill="#96d384" stroke="#96d384" stroke-width="1.51"/><path d="M817,642L790,745L870,718Z" fill="#6fc072" stroke="#6fc072" stroke-width="1.51"/><path d="M676,106L793,250L870,154Z" fill="#b6e193" stroke="#b6e193" stroke-width="1.51"/><path d="M793,250L698,451L869,347Z" fill="#a1d889" stroke="#a1d889" stroke-width="1.51"/><path d="M740,645L817,642L837,493Z" fill="#7fc97a" stroke="#7fc97a" stroke-width="1.51"/><path d="M790,745L693,889L860,859Z" fill="#68b56a" stroke="#68b56a" stroke-width="1.51"/><path d="M624,298L698,451L793,250Z" fill="#aadc8c" stroke="#aadc8c" stroke-width="1.51"/><path d="M740,645L790,745L817,642Z" fill="#76c375" stroke="#76c375" stroke-width="1.51"/><path d="M698,451L740,645L837,493Z" fill="#8bce80" stroke="#8bce80" stroke-width="1.51"/><path d="M753,1009L681,1214L830,1143Z" fill="#589d5d" stroke="#589d5d" stroke-width="1.51"/><path d="M698,451L625,538L740,645Z" fill="#8fd081" stroke="#8fd081" stroke-width="1.51"/><path d="M647,774L693,889L790,745Z" fill="#70bb6e" stroke="#70bb6e" stroke-width="1.51"/><path d="M676,106L624,298L793,250Z" fill="#b8e293" stroke="#b8e293" stroke-width="1.51"/><path d="M599,-232L690,-15L797,-122Z" fill="#d0ecab" stroke="#d0ecab" stroke-width="1.51"/><path d="M740,645L647,774L790,745Z" fill="#75c274" stroke="#75c274" stroke-width="1.51"/><path d="M634,987L681,1214L753,1009Z" fill="#60a361" stroke="#60a361" stroke-width="1.51"/><path d="M634,987L544,1080L681,1214Z" fill="#65a463" stroke="#65a463" stroke-width="1.51"/><path d="M693,889L634,987L753,1009Z" fill="#67ac65" stroke="#67ac65" stroke-width="1.51"/><path d="M531,677L647,774L740,645Z" fill="#80c778" stroke="#80c778" stroke-width="1.51"/><path d="M625,538L531,677L740,645Z" fill="#8bcd7e" stroke="#8bcd7e" stroke-width="1.51"/><path d="M544,135L624,298L676,106Z" fill="#c3e698" stroke="#c3e698" stroke-width="1.51"/><path d="M546,10L676,106L690,-15Z" fill="#cdeb9f" stroke="#cdeb9f" stroke-width="1.51"/><path d="M599,-232L546,10L690,-15Z" fill="#d6eea9" stroke="#d6eea9" stroke-width="1.51"/><path d="M470,357L625,538L698,451Z" fill="#a3d98a" stroke="#a3d98a" stroke-width="1.51"/><path d="M624,298L470,357L698,451Z" fill="#aedd8f" stroke="#aedd8f" stroke-width="1.51"/><path d="M647,774L474,860L693,889Z" fill="#76ba6f" stroke="#76ba6f" stroke-width="1.51"/><path d="M474,860L634,987L693,889Z" fill="#71b36a" stroke="#71b36a" stroke-width="1.51"/><path d="M546,10L544,135L676,106Z" fill="#cdeb9e" stroke="#cdeb9e" stroke-width="1.51"/><path d="M544,1080L532,1288L681,1214Z" fill="#639c60" stroke="#639c60" stroke-width="1.51"/><path d="M426,-147L546,10L599,-232Z" fill="#ddf1b1" stroke="#ddf1b1" stroke-width="1.51"/><path d="M544,135L480,200L624,298Z" fill="#c4e799" stroke="#c4e799" stroke-width="1.51"/><path d="M531,677L469,715L647,774Z" fill="#84c87a" stroke="#84c87a" stroke-width="1.51"/><path d="M469,715L474,860L647,774Z" fill="#80c275" stroke="#80c275" stroke-width="1.51"/><path d="M470,357L402,557L625,538Z" fill="#a6da8b" stroke="#a6da8b" stroke-width="1.51"/><path d="M474,860L544,1080L634,987Z" fill="#71af69" stroke="#71af69" stroke-width="1.51"/><path d="M480,200L470,357L624,298Z" fill="#bde495" stroke="#bde495" stroke-width="1.51"/><path d="M402,557L531,677L625,538Z" fill="#97d284" stroke="#97d284" stroke-width="1.51"/><path d="M337,-226L426,-147L599,-232Z" fill="#e4f4bc" stroke="#e4f4bc" stroke-width="1.51"/><path d="M355,432L402,557L470,357Z" fill="#b1df90" stroke="#b1df90" stroke-width="1.51"/><path d="M402,557L469,715L531,677Z" fill="#93d081" stroke="#93d081" stroke-width="1.51"/><path d="M366,1119L381,1268L532,1288Z" fill="#6d9d63" stroke="#6d9d63" stroke-width="1.51"/><path d="M312,65L480,200L544,135Z" fill="#d3eea0" stroke="#d3eea0" stroke-width="1.51"/><path d="M366,1119L532,1288L544,1080Z" fill="#6ca164" stroke="#6ca164" stroke-width="1.51"/><path d="M474,860L366,1119L544,1080Z" fill="#75af6a" stroke="#75af6a" stroke-width="1.51"/><path d="M312,65L544,135L546,10Z" fill="#d7efa3" stroke="#d7efa3" stroke-width="1.51"/><path d="M376,-68L312,65L546,10Z" fill="#e0f3a9" stroke="#e0f3a9" stroke-width="1.51"/><path d="M426,-147L376,-68L546,10Z" fill="#e1f3ad" stroke="#e1f3ad" stroke-width="1.51"/><path d="M280,901L366,1119L474,860Z" fill="#7fb66f" stroke="#7fb66f" stroke-width="1.51"/><path d="M207,760L280,901L469,715Z" fill="#8ec87c" stroke="#8ec87c" stroke-width="1.51"/><path d="M402,557L292,641L469,715Z" fill="#9ad385" stroke="#9ad385" stroke-width="1.51"/><path d="M469,715L280,901L474,860Z" fill="#86c276" stroke="#86c276" stroke-width="1.51"/><path d="M289,313L470,357L480,200Z" fill="#c5e899" stroke="#c5e899" stroke-width="1.51"/><path d="M312,65L289,313L480,200Z" fill="#d3eea0" stroke="#d3eea0" stroke-width="1.51"/><path d="M292,641L207,760L469,715Z" fill="#96d082" stroke="#96d082" stroke-width="1.51"/><path d="M289,313L355,432L470,357Z" fill="#bee596" stroke="#bee596" stroke-width="1.51"/><path d="M209,216L289,313L312,65Z" fill="#d8f0a3" stroke="#d8f0a3" stroke-width="1.51"/><path d="M337,-226L376,-68L426,-147Z" fill="#e8f6b8" stroke="#e8f6b8" stroke-width="1.51"/><path d="M280,901L244,1142L366,1119Z" fill="#7eb16e" stroke="#7eb16e" stroke-width="1.51"/><path d="M366,1119L244,1142L381,1268Z" fill="#76a569" stroke="#76a569" stroke-width="1.51"/><path d="M355,432L211,481L402,557Z" fill="#b1df91" stroke="#b1df91" stroke-width="1.51"/><path d="M211,481L292,641L402,557Z" fill="#a9da8e" stroke="#a9da8e" stroke-width="1.51"/><path d="M-125,-174L125,-99L337,-226Z" fill="#f6fcc4" stroke="#f6fcc4" stroke-width="1.51"/><path d="M337,-226L125,-99L376,-68Z" fill="#edf8ba" stroke="#edf8ba" stroke-width="1.51"/><path d="M244,1142L212,1304L381,1268Z" fill="#769f68" stroke="#769f68" stroke-width="1.51"/><path d="M125,-99L312,65L376,-68Z" fill="#ebf8b0" stroke="#ebf8b0" stroke-width="1.51"/><path d="M125,-99L135,27L312,65Z" fill="#ecf8b1" stroke="#ecf8b1" stroke-width="1.51"/><path d="M289,313L211,481L355,432Z" fill="#bde497" stroke="#bde497" stroke-width="1.51"/><path d="M172,1196L212,1304L244,1142Z" fill="#7aa36b" stroke="#7aa36b" stroke-width="1.51"/><path d="M137,1128L244,1142L280,901Z" fill="#82b271" stroke="#82b271" stroke-width="1.51"/><path d="M167,78L209,216L312,65Z" fill="#e1f3a9" stroke="#e1f3a9" stroke-width="1.51"/><path d="M35,982L137,1128L280,901Z" fill="#88b775" stroke="#88b775" stroke-width="1.51"/><path d="M207,760L181,782L280,901Z" fill="#92c87d" stroke="#92c87d" stroke-width="1.51"/><path d="M143,401L211,481L289,313Z" fill="#c2e69a" stroke="#c2e69a" stroke-width="1.51"/><path d="M135,27L167,78L312,65Z" fill="#e7f6ad" stroke="#e7f6ad" stroke-width="1.51"/><path d="M211,481L111,656L292,641Z" fill="#aada8e" stroke="#aada8e" stroke-width="1.51"/><path d="M111,656L207,760L292,641Z" fill="#9fd488" stroke="#9fd488" stroke-width="1.51"/><path d="M209,216L122,253L289,313Z" fill="#d4eda1" stroke="#d4eda1" stroke-width="1.51"/><path d="M122,253L143,401L289,313Z" fill="#cdeb9f" stroke="#cdeb9f" stroke-width="1.51"/><path d="M181,782L35,982L280,901Z" fill="#8fc17a" stroke="#8fc17a" stroke-width="1.51"/><path d="M-125,1168L-272,1235L212,1304Z" fill="#83a576" stroke="#83a576" stroke-width="1.51"/><path d="M137,1128L172,1196L244,1142Z" fill="#7eaa6f" stroke="#7eaa6f" stroke-width="1.51"/><path d="M-2,842L35,982L181,782Z" fill="#95c57f" stroke="#95c57f" stroke-width="1.51"/><path d="M111,656L181,782L207,760Z" fill="#9bd185" stroke="#9bd185" stroke-width="1.51"/><path d="M167,78L122,253L209,216Z" fill="#def2a7" stroke="#def2a7" stroke-width="1.51"/><path d="M143,401L22,600L211,481Z" fill="#bae298" stroke="#bae298" stroke-width="1.51"/><path d="M22,600L111,656L211,481Z" fill="#b0dd92" stroke="#b0dd92" stroke-width="1.51"/><path d="M172,1196L28,1148L212,1304Z" fill="#7da56d" stroke="#7da56d" stroke-width="1.51"/><path d="M28,1148L-125,1168L212,1304Z" fill="#82a771" stroke="#82a771" stroke-width="1.51"/><path d="M122,253L21,351L143,401Z" fill="#d1eca1" stroke="#d1eca1" stroke-width="1.51"/><path d="M111,656L-2,842L181,782Z" fill="#9cd085" stroke="#9cd085" stroke-width="1.51"/><path d="M135,27L-93,220L167,78Z" fill="#eaf7af" stroke="#eaf7af" stroke-width="1.51"/><path d="M-93,220L122,253L167,78Z" fill="#e3f4ab" stroke="#e3f4ab" stroke-width="1.51"/><path d="M137,1128L28,1148L172,1196Z" fill="#81ab70" stroke="#81ab70" stroke-width="1.51"/><path d="M21,351L22,600L143,401Z" fill="#c3e69d" stroke="#c3e69d" stroke-width="1.51"/><path d="M-88,-21L-93,220L135,27Z" fill="#eff9b5" stroke="#eff9b5" stroke-width="1.51"/><path d="M125,-99L-88,-21L135,27Z" fill="#f5fbb8" stroke="#f5fbb8" stroke-width="1.51"/><path d="M35,982L28,1148L137,1128Z" fill="#87b275" stroke="#87b275" stroke-width="1.51"/><path d="M22,600L-2,842L111,656Z" fill="#a5d68c" stroke="#a5d68c" stroke-width="1.51"/><path d="M-125,-174L-88,-21L125,-99Z" fill="#fafdc4" stroke="#fafdc4" stroke-width="1.51"/><path d="M21,351L-130,493L22,600Z" fill="#c2e5a0" stroke="#c2e5a0" stroke-width="1.51"/><path d="M-93,220L21,351L122,253Z" fill="#daf0a8" stroke="#daf0a8" stroke-width="1.51"/><path d="M-125,-174L-134,-65L-88,-21Z" fill="#fafdc9" stroke="#fafdc9" stroke-width="1.51"/><path d="M-93,220L-137,316L21,351Z" fill="#daf0ad" stroke="#daf0ad" stroke-width="1.51"/><path d="M-80,858L-2,842L22,600Z" fill="#9fd08b" stroke="#9fd08b" stroke-width="1.51"/><path d="M-225,741L-80,858L22,600Z" fill="#a3d493" stroke="#a3d493" stroke-width="1.51"/><path d="M-122,532L-225,741L22,600Z" fill="#b1dc9c" stroke="#b1dc9c" stroke-width="1.51"/><path d="M-130,493L-122,532L22,600Z" fill="#bae2a0" stroke="#bae2a0" stroke-width="1.51"/><path d="M-160,1131L-125,1168L28,1148Z" fill="#87ae7b" stroke="#87ae7b" stroke-width="1.51"/><path d="M-80,858L-220,1004L35,982Z" fill="#93be83" stroke="#93be83" stroke-width="1.51"/><path d="M-220,1004L-160,1131L35,982Z" fill="#8eb782" stroke="#8eb782" stroke-width="1.51"/><path d="M-160,1131L28,1148L35,982Z" fill="#8ab37a" stroke="#8ab37a" stroke-width="1.51"/><path d="M-2,842L-80,858L35,982Z" fill="#95c381" stroke="#95c381" stroke-width="1.51"/><path d="M-137,316L-130,493L21,351Z" fill="#ceeba9" stroke="#ceeba9" stroke-width="1.51"/><path d="M-249,680L-225,741L-122,532Z" fill="#aedba0" stroke="#aedba0" stroke-width="1.51"/><path d="M-279,177L-93,220L-88,-21Z" fill="#edf8bc" stroke="#edf8bc" stroke-width="1.51"/><path d="M-134,-65L-279,177L-88,-21Z" fill="#f4fbc3" stroke="#f4fbc3" stroke-width="1.51"/><path d="M-225,741L-220,1004L-80,858Z" fill="#9ac78e" stroke="#9ac78e" stroke-width="1.51"/><path d="M-279,177L-137,316L-93,220Z" fill="#e1f3b7" stroke="#e1f3b7" stroke-width="1.51"/><path d="M-215,-114L-279,177L-134,-65Z" fill="#f7fcc8" stroke="#f7fcc8" stroke-width="1.51"/><path d="M-137,316L-279,177L-130,493Z" fill="#d7efb3" stroke="#d7efb3" stroke-width="1.51"/><path d="M-215,-114L-134,-65L-125,-174Z" fill="#fbfdcf" stroke="#fbfdcf" stroke-width="1.51"/><path d="M-160,1131L-272,1235L-125,1168Z" fill="#87ab81" stroke="#87ab81" stroke-width="1.51"/><path d="M-130,493L-249,680L-122,532Z" fill="#b8e0a4" stroke="#b8e0a4" stroke-width="1.51"/><path d="M-279,177L-249,680L-130,493Z" fill="#c8e8af" stroke="#c8e8af" stroke-width="1.51"/><path d="M-220,1004L-272,1235L-160,1131Z" fill="#8ab185" stroke="#8ab185" stroke-width="1.51"/><path d="M-225,741L-249,680L-220,1004Z" fill="#9fce96" stroke="#9fce96" stroke-width="1.51"/><path d="M-249,680L-272,1235L-220,1004Z" fill="#93bd8d" stroke="#93bd8d" stroke-width="1.51"/><path d="M-279,177L-272,1235L-249,680Z" fill="#aad8a1" stroke="#aad8a1" stroke-width="1.51"/></svg>